<?xml version="1.0" standalone="no"?>
<!DOCTYPE svg PUBLIC "-//W3C//DTD SVG 20010904//EN"
 "http://www.w3.org/TR/2001/REC-SVG-20010904/DTD/svg10.dtd">
<svg version="1.0" xmlns="http://www.w3.org/2000/svg"
 width="50.000000pt" height="50.000000pt" viewBox="0 0 50.000000 50.000000"
 preserveAspectRatio="xMidYMid meet">
<metadata>
Created by potrace 1.13, written by Peter Selinger 2001-2015
</metadata>
<g transform="translate(0.000000,50.000000) scale(0.100000,-0.100000)"
fill="#000000" stroke="none">
<path d="M167 484 c-67 -21 -131 -86 -151 -155 -19 -62 -20 -90 -5 -144 43
-152 218 -226 357 -150 147 80 174 271 56 389 -70 70 -157 91 -257 60z m148
-25 c79 -22 155 -124 155 -209 0 -72 -56 -162 -122 -196 l-28 -15 0 45 c0 25
-5 48 -10 51 -15 9 -2 25 19 25 59 0 99 95 67 158 -9 17 -16 42 -16 56 0 31
-14 40 -40 26 -24 -13 -150 -20 -165 -9 -5 3 -20 10 -32 13 -21 7 -23 4 -23
-33 0 -22 -4 -43 -10 -46 -5 -3 -10 -30 -10 -60 0 -47 3 -56 31 -79 17 -14 40
-26 51 -26 13 0 18 -6 16 -17 -5 -26 -50 -28 -73 -3 -26 29 -38 25 -18 -7 22
-35 33 -43 61 -43 17 0 22 -6 22 -24 0 -23 -2 -24 -29 -15 -17 6 -48 30 -70
54 -73 79 -80 182 -20 270 54 78 148 110 244 84z"/>
</g>
</svg>
